<?xml version="1.0" standalone="no"?>
<!DOCTYPE svg PUBLIC "-//W3C//DTD SVG 20010904//EN"
 "http://www.w3.org/TR/2001/REC-SVG-20010904/DTD/svg10.dtd">
<svg version="1.0" xmlns="http://www.w3.org/2000/svg"
 width="458.000000pt" height="458.000000pt" viewBox="0 0 458.000000 458.000000"
 preserveAspectRatio="xMidYMid meet">
<metadata>
Created by potrace 1.14, written by Peter Selinger 2001-2017
</metadata>
<g transform="translate(0.000000,458.000000) scale(0.100000,-0.100000)"
fill="#000000" stroke="none">
<path d="M300 2290 l0 -1990 1990 0 1990 0 0 1990 0 1990 -1990 0 -1990 0 0
-1990z m2717 1456 c46 -53 24 -229 -29 -240 -47 -10 -274 -16 -631 -17 -241
-1 -379 -5 -398 -12 -22 -9 -31 -20 -36 -47 -11 -47 -10 -916 0 -926 5 -5 178
-12 385 -16 207 -5 387 -12 399 -18 44 -19 56 -168 19 -225 -21 -31 -38 -33
-408 -40 -168 -3 -320 -10 -337 -15 -67 -19 -63 25 -66 -678 -2 -438 -6 -648
-14 -674 -14 -43 -46 -58 -126 -58 -82 0 -96 17 -106 126 -4 49 -11 298 -14
554 -3 256 -8 478 -11 495 -10 64 -4 1710 7 1748 6 21 20 48 31 59 21 21 22
21 667 16 l645 -6 23 -26z"/>
</g>
</svg>
