<?xml version="1.0" standalone="no"?>
<!DOCTYPE svg PUBLIC "-//W3C//DTD SVG 20010904//EN"
 "http://www.w3.org/TR/2001/REC-SVG-20010904/DTD/svg10.dtd">
<svg version="1.0" xmlns="http://www.w3.org/2000/svg"
 width="600.000000pt" height="600.000000pt" viewBox="0 0 600.000000 600.000000"
 preserveAspectRatio="xMidYMid meet">
<metadata>
Created by potrace 1.14, written by Peter Selinger 2001-2017
</metadata>
<g transform="translate(0.000000,600.000000) scale(0.100000,-0.100000)"
fill="#000000" stroke="none">
<path d="M0 3000 l0 -3000 3000 0 3000 0 0 3000 0 3000 -3000 0 -3000 0 0
-3000z m4298 1567 c2 -277 1 -297 -15 -289 -24 14 -1864 3 -1881 -11 -10 -8
-12 -58 -7 -236 2 -124 7 -345 10 -491 4 -190 9 -267 18 -272 7 -4 53 -5 102
-2 118 8 1505 21 1515 14 6 -4 16 -534 11 -595 -1 -7 -278 -9 -815 -7 -745 2
-816 1 -831 -14 -9 -9 -14 -23 -11 -31 3 -8 11 -229 17 -491 8 -377 13 -484
25 -509 11 -25 14 -90 14 -325 0 -284 -1 -294 -20 -306 -16 -9 -109 -13 -388
-13 l-367 0 -2 88 c-6 256 -22 3767 -17 3772 7 8 1046 16 1939 16 l700 0 3
-298z"/>
</g>
</svg>
